<?xml version="1.0" standalone="no"?>
<!DOCTYPE svg PUBLIC "-//W3C//DTD SVG 20010904//EN"
 "http://www.w3.org/TR/2001/REC-SVG-20010904/DTD/svg10.dtd">
<svg version="1.0" xmlns="http://www.w3.org/2000/svg"
 width="347.000000pt" height="110.000000pt" viewBox="0 0 347.000000 110.000000"
 preserveAspectRatio="xMidYMid meet">
<metadata>
Created by potrace 1.15, written by Peter Selinger 2001-2017
</metadata>
<g transform="translate(0.000000,110.000000) scale(0.100000,-0.100000)"
fill="#000000" stroke="none">
<path d="M0 1080 c0 -11 5 -20 10 -20 6 0 10 -20 10 -45 l0 -45 90 0 90 0 0
45 c0 33 4 45 15 45 13 0 15 -46 15 -356 0 -234 3 -353 10 -349 6 4 10 133 10
356 0 226 4 349 10 349 6 0 10 -20 10 -45 l0 -45 95 0 95 0 0 45 c0 25 4 45 9
45 6 0 10 -140 11 -353 1 -391 -2 -412 -62 -474 -96 -99 -341 -70 -400 47 -18
35 -18 34 -18 -122 l0 -158 405 0 405 0 0 420 0 420 105 0 c60 0 105 -4 105
-9 0 -6 16 -3 35 5 44 18 118 18 153 0 54 -28 57 -46 57 -322 l0 -254 -36 -36
c-32 -32 -41 -36 -91 -36 -36 0 -64 5 -79 16 -13 9 -27 16 -31 16 -5 0 -8 -49
-8 -110 l0 -110 1225 0 1225 0 0 90 0 90 -86 0 c-94 0 -139 15 -164 52 -10 18
-15 74 -18 241 -4 176 -7 217 -18 217 -11 0 -14 17 -14 66 0 55 3 65 15 60 12
-4 15 4 15 44 l0 50 111 0 111 0 -7 -30 c-10 -44 2 -70 31 -70 l24 0 0 145 0
145 -217 0 c-120 0 -212 -4 -205 -8 26 -17 62 -77 62 -105 0 -40 -28 -84 -66
-102 -40 -19 -53 -19 -98 0 -73 31 -87 131 -25 188 l30 27 -1475 0 c-1469 0
-1476 0 -1476 -20z m1641 -244 c81 -34 116 -104 120 -238 l3 -93 -122 -3 -122
-3 0 -84 c0 -77 10 -109 28 -90 4 4 9 39 12 78 l5 72 100 0 100 0 -4 -75 c-6
-148 -73 -212 -221 -213 -115 -1 -192 42 -219 122 -15 46 -13 386 2 427 18 45
51 82 88 99 45 19 186 20 230 1z m479 -106 l0 -120 -29 0 c-16 0 -39 -8 -52
-18 -21 -18 -22 -26 -27 -205 l-5 -187 -103 0 -104 0 0 320 0 320 111 0 c110
0 110 0 104 -22 -5 -21 -4 -21 11 3 13 20 26 26 55 27 l39 2 0 -120z m420 105
c15 -8 30 -20 32 -27 3 -9 15 -4 37 15 28 23 42 27 95 27 41 0 69 -5 85 -16
47 -33 51 -63 51 -359 l0 -275 -99 0 -100 0 -3 254 c-2 140 -6 257 -10 261
-23 24 -28 -20 -28 -261 l0 -254 -105 0 -105 0 0 248 c0 145 -4 253 -10 262
-23 35 -30 -21 -30 -262 l0 -248 -105 0 -105 0 0 320 0 320 105 0 c65 0 105
-4 105 -10 0 -6 12 -4 28 4 35 20 125 20 162 1z m570 -320 l0 -325 -94 0 c-52
0 -101 -3 -110 -6 -14 -6 -16 27 -16 325 l0 331 110 0 110 0 0 -325z m-2330 5
l0 -80 -135 0 -135 0 0 80 0 80 135 0 135 0 0 -80z"/>
<path d="M1520 671 c0 -39 4 -51 16 -51 12 0 14 10 12 47 -4 66 -28 70 -28 4z"/>
<path d="M2980 1083 c-30 -6 -69 -39 -81 -71 -11 -30 17 -93 49 -107 12 -5 22
-13 22 -17 0 -24 81 11 105 45 26 38 19 85 -19 123 -19 19 -38 33 -42 33 -5
-1 -20 -4 -34 -6z"/>
<path d="M22 637 l3 -324 27 -35 c37 -49 89 -71 176 -76 96 -5 166 26 203 90
24 43 24 45 27 356 l3 312 -95 0 -96 0 0 -313 c0 -230 -3 -316 -12 -325 -16
-16 -23 -15 -42 4 -14 13 -16 57 -16 325 l0 309 -90 0 -91 0 3 -323z"/>
<path d="M1026 705 c-9 -24 -7 -358 2 -372 4 -7 13 -8 20 -4 17 10 13 382 -4
388 -6 2 -14 -3 -18 -12z"/>
<path d="M3416 674 c-8 -21 -8 -254 0 -321 6 -47 9 -53 30 -53 l24 0 0 195 0
195 -24 0 c-13 0 -27 -7 -30 -16z"/>
</g>
</svg>
